<svg t="1705561315350" class="icon" viewBox="0 0 1024 1024" version="1.1" xmlns="http://www.w3.org/2000/svg" p-id="2690" width="200" height="200"><path d="M672 288a256 256 0 0 1 256 256v128a256 256 0 0 1-256 256H240a26.656 26.656 0 0 1-16-48l12.8-9.6a128 128 0 0 0 50.976-94.88L288 768v-224a256 256 0 0 1 256-256h128z m57.536 240.64a52.928 52.928 0 0 0-35.136 12.48 62.4 62.4 0 0 0-11.52 12.48 117.344 117.344 0 0 0-5.792 9.216l-2.464 4.608v-18.816c0-4.608-2.24-8.448-6.72-11.52a28.864 28.864 0 0 0-16.704-4.608 30.72 30.72 0 0 0-17.088 4.608 14.368 14.368 0 0 0-6.816 8.832l-0.288 2.688v178.944c0 4.096 2.24 7.808 6.72 11.136 4.48 3.328 10.176 4.992 17.088 4.992 6.912 0 12.608-1.6 17.088-4.8a14.848 14.848 0 0 0 6.464-8.8l0.256-2.528V618.88c0-9.728 1.088-17.728 3.264-24 2.176-6.272 5.12-11.136 8.832-14.592a29.664 29.664 0 0 1 13.44-7.104c5.248-1.28 10.944-1.92 17.088-1.92 7.424 0 13.568 1.024 18.432 3.072 4.864 2.048 8.64 5.12 11.328 9.216 2.688 4.096 4.544 9.28 5.568 15.552 0.768 4.704 1.248 9.92 1.44 15.744l0.096 5.952v106.752c0 4.608 2.24 8.448 6.72 11.52 4.48 3.072 10.304 4.608 17.472 4.608 7.168 0 12.864-1.536 17.088-4.608a14.304 14.304 0 0 0 6.08-8.832l0.256-2.688v-125.568c0-12.288-1.728-23.04-5.184-32.256a60.512 60.512 0 0 0-14.592-22.848 61.344 61.344 0 0 0-22.656-13.632 90.24 90.24 0 0 0-29.76-4.608z m-167.424-56.448h-118.656c-8.192 0-14.336 1.536-18.432 4.608-3.424 2.56-5.408 6.816-5.984 12.736l-0.16 3.776v225.408c0 8.192 2.176 13.76 6.528 16.704 3.488 2.368 8 3.776 13.632 4.224l4.416 0.192h118.272c9.728 0 16.64-1.536 20.736-4.608 4.096-3.072 6.144-8.704 6.144-16.896s-2.048-13.824-6.144-16.896c-3.424-2.56-8.768-4.064-16.096-4.48l-4.64-0.128H468.8v-73.728h89.088c8.192 0 14.08-1.6 17.664-4.8 3.584-3.2 5.376-8.64 5.376-16.32s-1.792-13.248-5.376-16.704c-2.976-2.88-7.584-4.544-13.76-5.024l-3.904-0.16H468.8V515.2h92.928c7.424 0 13.184-1.6 17.28-4.8 4.096-3.2 6.016-8.768 5.76-16.704-0.256-7.936-2.24-13.504-5.952-16.704a21.824 21.824 0 0 0-12.48-4.608l-4.224-0.192zM480 96a256 256 0 0 1 231.488 146.56A301.824 301.824 0 0 0 672 240h-128A304 304 0 0 0 240 544v166.272A256 256 0 0 1 96 480v-128a256 256 0 0 1 256-256h128z" fill="#FF5E65" p-id="2691"></path></svg>