<svg t="1694939060487" class="icon" viewBox="0 0 1024 1024" version="1.1" xmlns="http://www.w3.org/2000/svg" p-id="967" width="200" height="200"><path d="M477.330286 43.446857A38.838857 38.838857 0 0 1 543.451429 38.034286l3.218285 5.412571 137.289143 278.235429 306.980572 44.617143a38.546286 38.546286 0 0 1 25.526857 61.220571l-4.169143 4.754286-222.061714 216.502857 52.443428 305.810286a38.619429 38.619429 0 0 1-50.249143 43.227428l-5.851428-2.486857L512 851.017143l-274.578286 144.310857a38.619429 38.619429 0 0 1-56.685714-34.377143l0.585143-6.363428 52.516571-305.737143L11.702857 432.274286a38.765714 38.765714 0 0 1 15.213714-64.658286l6.217143-1.462857 306.907429-44.617143L477.330286 43.52z m148.333714 358.4L511.926857 171.593143l-113.517714 230.4-254.317714 36.864 184.027428 179.419428-43.446857 253.147429L512 751.835429l227.328 119.442285-43.446857-253.074285 183.954286-179.419429-254.171429-36.864z" fill="#000000" fill-opacity=".65" p-id="968"></path></svg>