<svg t="1694938740241" class="icon" viewBox="0 0 1024 1024" version="1.1" xmlns="http://www.w3.org/2000/svg" p-id="1059" width="200" height="200"><path d="M307.2 204.8c-113.1 0-204.8 91.7-204.8 204.8s91.7 204.8 204.8 204.8S512 522.7 512 409.6s-91.7-204.8-204.8-204.8m0-102.4c169.7 0 307.2 137.5 307.2 307.2S476.9 716.8 307.2 716.8 0 579.3 0 409.6s137.5-307.2 307.2-307.2zM681.7 972.8c-16.3 0-31.6-7.7-41.3-20.8L463.3 711.8c-16.8-22.8-11.9-54.8 10.8-71.6 22.8-16.8 54.8-11.9 71.6 10.8l177.2 240.2c16.8 22.7 12 54.8-10.8 71.6-8.7 6.5-19.3 10-30.2 10h-0.2zM972.8 256h-256c-28.3 0-51.2-22.9-51.2-51.2s22.9-51.2 51.2-51.2h256c28.3 0 51.2 22.9 51.2 51.2s-22.9 51.2-51.2 51.2zM972.8 460.8H768c-28.3 0-51.2-22.9-51.2-51.2s22.9-51.2 51.2-51.2h204.8c28.3 0 51.2 22.9 51.2 51.2s-22.9 51.2-51.2 51.2zM972.8 665.6H768c-28.3 0-51.2-22.9-51.2-51.2s22.9-51.2 51.2-51.2h204.8c28.3 0 51.2 22.9 51.2 51.2s-22.9 51.2-51.2 51.2z" fill="#666666" p-id="1060"></path></svg>