<svg t="1695000908853" class="icon" viewBox="0 0 1024 1024" version="1.1" xmlns="http://www.w3.org/2000/svg" p-id="12630" id="mx_n_1695000908854" width="200" height="200"><path d="M219.428571 0h585.142858c107.739429 0 146.285714 78.628571 146.285714 175.542857v87.771429c0 96.914286-38.546286 175.542857-146.285714 175.542857H219.428571C111.689143 438.857143 73.142857 360.228571 73.142857 263.314286V175.542857C73.142857 78.628571 111.689143 0 219.428571 0z m0 73.142857c-52.077714 0-73.142857 28.964571-73.142857 102.4v87.771429C146.285714 336.749714 167.350857 365.714286 219.428571 365.714286h585.142858c52.077714 0 73.142857-28.964571 73.142857-102.4V175.542857c0-73.435429-21.065143-102.4-73.142857-102.4H219.428571z m124.416 438.857143h336.310858c69.705143 0 129.462857 48.274286 141.970285 114.614857l53.979429 287.597714c10.752 57.197714-34.596571 109.787429-94.646857 109.787429H242.541714c-60.050286 0-105.398857-52.662857-94.646857-109.714286l54.052572-287.670857C214.308571 560.274286 274.139429 512 343.771429 512z m0 73.142857c-34.889143 0-64.146286 23.625143-70.070857 55.003429l-54.052571 287.597714c-2.121143 11.483429 7.899429 23.113143 22.820571 23.113143h538.916572c14.921143 0 24.941714-11.702857 22.820571-23.113143l-54.052571-287.597714C744.374857 608.694857 715.117714 585.142857 680.228571 585.142857H343.844571zM292.571429 182.857143c0-26.916571 16.384-36.571429 36.571428-36.571429s36.571429 9.654857 36.571429 36.571429v73.142857c0 26.916571-16.384 36.571429-36.571429 36.571429S292.571429 282.916571 292.571429 256v-73.142857z m365.714285 0c0-26.916571 16.384-36.571429 36.571429-36.571429s36.571429 9.654857 36.571428 36.571429v73.142857c0 26.916571-16.384 36.571429-36.571428 36.571429S658.285714 282.916571 658.285714 256v-73.142857z" fill="#7c3aed" p-id="12631"></path></svg>