<svg t="1707921500793" class="icon" viewBox="0 0 1024 1024" version="1.1" xmlns="http://www.w3.org/2000/svg" p-id="1214" width="200" height="200"><path d="M512.12 667.04c-18.09 0-36.09 7.44-48.9 20.22s-20.25 30.75-20.25 48.81 7.44 36.06 20.25 48.81c12.78 12.78 30.78 20.22 48.9 20.22s36.09-7.44 48.9-20.22c12.78-12.78 20.25-30.75 20.25-48.81s-7.44-36.06-20.25-48.81c-12.78-12.78-30.78-20.22-48.9-20.22z" fill="#2c2c2c" p-id="1215"></path><path d="M511.4 231.98c-46.62 0-84.3 14.28-113.01 42.78-28.71 28.56-45.45 67.89-46.38 104.13s75.6 28.71 78.42 10.83c3-18.96 15.54-49.59 30.15-63.45s32.82-20.82 54.54-20.82c22.56 0 40.5 6.66 53.79 19.98s19.98 29.34 19.98 48c0 13.47-3.78 25.8-11.25 36.99-4.86 7.08-19.8 22.02-44.7 44.85s-41.58 43.38-49.86 61.62-12.48 41.52-12.48 69.84c0 2.7 0.09 10.38 0.3 22.92l77.61 0c-0.42-26.46 1.59-44.85 5.94-55.11 4.35-10.29 15.54-23.88 33.54-40.74 34.8-32.61 57.54-58.44 68.19-77.34 10.62-18.93 15.9-39.06 15.9-60.27 0-38.34-14.46-71.97-43.5-100.86s-68.04-43.35-117.12-43.35z" fill="#2c2c2c" p-id="1216"></path><path d="M512 32c-264.57 0-480 215.31-480 480.03s215.37 479.97 480 479.97c264.66 0 480-215.25 480-479.97s-215.28-480.03-480-480.03zM511.7 930.98c-231.42 0-419.61-188.22-419.61-419.49 0-231.42 188.22-419.58 419.61-419.58s419.67 188.13 419.67 419.58c0.03 231.3-188.25 419.49-419.67 419.49z" fill="#2c2c2c" p-id="1217"></path></svg>